<svg width="12" height="7" viewBox="0 0 12 7" fill="none" xmlns="http://www.w3.org/2000/svg">
<path d="M5.99999 4.94626L10.073 0.873012C10.2115 0.734678 10.3856 0.663845 10.5952 0.660512C10.8047 0.657345 10.982 0.728178 11.127 0.873012C11.2718 1.01801 11.3442 1.19368 11.3442 1.40001C11.3442 1.60634 11.2718 1.78201 11.127 1.92701L6.63274 6.42126C6.53907 6.51476 6.44032 6.58076 6.33649 6.61926C6.23265 6.65776 6.12049 6.67701 5.99999 6.67701C5.87949 6.67701 5.76732 6.65776 5.66349 6.61926C5.55965 6.58076 5.4609 6.51476 5.36724 6.42126L0.872987 1.92701C0.734653 1.78851 0.66382 1.61443 0.660487 1.40476C0.657321 1.19526 0.728153 1.01801 0.872987 0.873011C1.01799 0.728178 1.19365 0.655761 1.39999 0.655761C1.60632 0.655761 1.78199 0.728178 1.92699 0.873011L5.99999 4.94626Z" fill="#333333"/>
</svg>
