<svg width="16" height="16" viewBox="0 0 16 16" fill="none" xmlns="http://www.w3.org/2000/svg">
<path d="M8 13.9358C6.61456 13.9358 5.43489 13.4574 4.461 12.5005C3.487 11.5436 3 10.3787 3 9.0058C3 8.35058 3.12972 7.72385 3.38917 7.12563C3.6485 6.5273 4.00683 5.99652 4.46417 5.5333L8 2.06396L11.5358 5.5333C11.9932 5.99652 12.3515 6.52735 12.6108 7.1258C12.8703 7.72424 13 8.35135 13 9.00713C13 10.3809 12.513 11.5458 11.539 12.5018C10.5651 13.4578 9.38544 13.9358 8 13.9358ZM4 9.0088H12C12 8.48658 11.9 7.98858 11.7 7.5148C11.5 7.04113 11.2111 6.62591 10.8333 6.26913L8 3.46913L5.16667 6.26913C4.78889 6.62591 4.5 7.04113 4.3 7.5148C4.1 7.98858 4 8.48658 4 9.0088Z" fill="#8B8B8B"/>
</svg>
<svg width="16" height="16" viewBox="0 0 16 16" fill="none" xmlns="http://www.w3.org/2000/svg">
<path d="M8 13.9358C6.61456 13.9358 5.43489 13.4574 4.461 12.5005C3.487 11.5436 3 10.3787 3 9.0058C3 8.35058 3.12972 7.72385 3.38917 7.12563C3.6485 6.5273 4.00683 5.99652 4.46417 5.5333L8 2.06396L11.5358 5.5333C11.9932 5.99652 12.3515 6.52735 12.6108 7.1258C12.8703 7.72424 13 8.35135 13 9.00713C13 10.3809 12.513 11.5458 11.539 12.5018C10.5651 13.4578 9.38544 13.9358 8 13.9358ZM4 9.0088H12C12 8.48658 11.9 7.98858 11.7 7.5148C11.5 7.04113 11.2111 6.62591 10.8333 6.26913L8 3.46913L5.16667 6.26913C4.78889 6.62591 4.5 7.04113 4.3 7.5148C4.1 7.98858 4 8.48658 4 9.0088Z" fill="#8B8B8B"/>
</svg>
