<svg width="20" height="19" viewBox="0 0 20 19" fill="none" xmlns="http://www.w3.org/2000/svg">
<path d="M9.989 15.1152C10.2745 15.1152 10.5157 15.0168 10.7125 14.8198C10.9093 14.6226 11.0078 14.3812 11.0078 14.0955C11.0078 13.81 10.9092 13.5688 10.712 13.372C10.5148 13.1753 10.2735 13.077 9.988 13.077C9.7025 13.077 9.46133 13.1756 9.2645 13.3728C9.06767 13.5699 8.96925 13.8113 8.96925 14.0968C8.96925 14.3822 9.06783 14.6234 9.265 14.8203C9.46217 15.0169 9.7035 15.1152 9.989 15.1152ZM10.0017 19C8.68775 19 7.45267 18.7507 6.2965 18.252C5.14033 17.7533 4.13467 17.0766 3.2795 16.2218C2.42433 15.3669 1.74725 14.3617 1.24825 13.206C0.749417 12.0503 0.5 10.8156 0.5 9.50175C0.5 8.18775 0.749333 6.95267 1.248 5.7965C1.74667 4.64033 2.42342 3.63467 3.27825 2.7795C4.13308 1.92433 5.13833 1.24725 6.294 0.74825C7.44967 0.249417 8.68442 0 9.99825 0C11.3123 0 12.5473 0.249333 13.7035 0.748C14.8597 1.24667 15.8653 1.92342 16.7205 2.77825C17.5757 3.63308 18.2528 4.63833 18.7518 5.794C19.2506 6.94967 19.5 8.18442 19.5 9.49825C19.5 10.8123 19.2507 12.0473 18.752 13.2035C18.2533 14.3597 17.5766 15.3653 16.7218 16.2205C15.8669 17.0757 14.8617 17.7528 13.706 18.2518C12.5503 18.7506 11.3156 19 10.0017 19ZM10 17.5C12.2333 17.5 14.125 16.725 15.675 15.175C17.225 13.625 18 11.7333 18 9.5C18 7.26667 17.225 5.375 15.675 3.825C14.125 2.275 12.2333 1.5 10 1.5C7.76667 1.5 5.875 2.275 4.325 3.825C2.775 5.375 2 7.26667 2 9.5C2 11.7333 2.775 13.625 4.325 15.175C5.875 16.725 7.76667 17.5 10 17.5ZM10.081 5.21925C10.5423 5.21925 10.9416 5.3645 11.2788 5.655C11.6161 5.9455 11.7848 6.30858 11.7848 6.74425C11.7848 7.11092 11.677 7.43908 11.4615 7.72875C11.2462 8.01858 11 8.2885 10.723 8.5385C10.36 8.8605 10.0404 9.21475 9.76425 9.60125C9.48808 9.98758 9.34042 10.4179 9.32125 10.8923C9.31475 11.0744 9.37883 11.227 9.5135 11.35C9.64817 11.473 9.80517 11.5345 9.9845 11.5345C10.1768 11.5345 10.3397 11.4704 10.473 11.3422C10.6063 11.2141 10.6916 11.0571 10.7288 10.8713C10.7954 10.5276 10.9374 10.2215 11.1547 9.953C11.3721 9.68433 11.6075 9.42892 11.861 9.18675C12.2255 8.83142 12.5436 8.44408 12.8152 8.02475C13.0871 7.60525 13.223 7.13742 13.223 6.62125C13.223 5.82892 12.9108 5.17792 12.2865 4.66825C11.6622 4.15875 10.9333 3.904 10.1 3.904C9.50517 3.904 8.94425 4.03567 8.41725 4.299C7.89042 4.5625 7.48017 4.94683 7.1865 5.452C7.0955 5.60717 7.06633 5.77042 7.099 5.94175C7.1315 6.11325 7.21942 6.24342 7.36275 6.33225C7.54525 6.43375 7.73267 6.46275 7.925 6.41925C8.11733 6.37558 8.28075 6.266 8.41525 6.0905C8.61792 5.82767 8.86317 5.61675 9.151 5.45775C9.43883 5.29875 9.74883 5.21925 10.081 5.21925Z" fill="#8CBFFD"/>
</svg>
