<svg width="10" height="12" viewBox="0 0 10 12" fill="none" xmlns="http://www.w3.org/2000/svg">
<path d="M5 11.3333C3.60511 11.3333 2.42306 10.8487 1.45383 9.87948C0.484611 8.91026 0 7.7282 0 6.33331C0 5.20598 0.325222 4.11048 0.975667 3.04681C1.62611 1.98315 2.518 1.04787 3.65133 0.240982C3.86578 0.0828705 4.09078 0.0670923 4.32633 0.193648C4.56178 0.320092 4.6795 0.514092 4.6795 0.775648V1.34098C4.6795 1.74865 4.84528 2.10487 5.17683 2.40965C5.5085 2.71431 5.89956 2.86665 6.35 2.86665C6.54744 2.86665 6.73867 2.8282 6.92367 2.75131C7.10878 2.67443 7.27867 2.56459 7.43333 2.42181C7.52222 2.33204 7.62756 2.2797 7.74933 2.26481C7.87111 2.24981 7.98456 2.28248 8.08967 2.36281C8.68711 2.83293 9.15489 3.41732 9.493 4.11598C9.831 4.81476 10 5.55387 10 6.33331C10 7.7282 9.51539 8.91026 8.54617 9.87948C7.57695 10.8487 6.39489 11.3333 5 11.3333ZM1 6.33331C1 7.00509 1.1605 7.63031 1.4815 8.20898C1.80239 8.78765 2.24361 9.25432 2.80517 9.60898C2.75561 9.51498 2.72011 9.42115 2.69867 9.32748C2.67733 9.23393 2.66667 9.13587 2.66667 9.03332C2.66667 8.72476 2.72589 8.43415 2.84433 8.16148C2.96267 7.88881 3.1325 7.64181 3.35383 7.42048L5 5.80131L6.6525 7.42048C6.87395 7.64181 7.04278 7.88881 7.159 8.16148C7.27522 8.43415 7.33333 8.72476 7.33333 9.03332C7.33333 9.13587 7.32267 9.23393 7.30133 9.32748C7.27989 9.42115 7.24439 9.51498 7.19483 9.60898C7.75639 9.25432 8.19761 8.78765 8.5185 8.20898C8.8395 7.63031 9 7.00509 9 6.33331C9 5.77776 8.89722 5.25276 8.69167 4.75831C8.48611 4.26387 8.18889 3.8222 7.8 3.43331C7.57778 3.57776 7.34445 3.68609 7.1 3.75831C6.85556 3.83054 6.60556 3.86665 6.35 3.86665C5.65689 3.86665 5.05756 3.63887 4.552 3.18331C4.04644 2.72776 3.75689 2.16237 3.68333 1.48715C2.81667 2.21626 2.15278 2.99787 1.69167 3.83198C1.23056 4.6662 1 5.49998 1 6.33331ZM5 7.19998L4.05 8.13332C3.92778 8.25554 3.83333 8.39443 3.76667 8.54998C3.7 8.70554 3.66667 8.86665 3.66667 9.03332C3.66667 9.38887 3.79722 9.69443 4.05833 9.94998C4.31944 10.2055 4.63333 10.3333 5 10.3333C5.36667 10.3333 5.68056 10.2055 5.94167 9.94998C6.20278 9.69443 6.33333 9.38887 6.33333 9.03332C6.33333 8.85554 6.3 8.69165 6.23333 8.54165C6.16667 8.39165 6.07222 8.25554 5.95 8.13332L5 7.19998Z" fill="#F23A2F"/>
</svg>
