<svg width="8" height="9" viewBox="0 0 8 9" fill="none" xmlns="http://www.w3.org/2000/svg">
<path d="M3.99873 3.20222L0.951188 0.165139C0.847558 0.0616026 0.719237 0.00671387 0.566224 0.000476837C0.41321 -0.00576019 0.278654 0.0491276 0.162553 0.165139C0.0541844 0.273666 0 0.405147 0 0.559579C0 0.714012 0.0541844 0.845492 0.162553 0.95402L3.52529 4.3178C3.59537 4.38778 3.66926 4.43718 3.74695 4.466C3.82464 4.49481 3.90857 4.50922 3.99873 4.50922C4.08889 4.50922 4.17282 4.49481 4.25051 4.466C4.3282 4.43718 4.40209 4.38778 4.47218 4.3178L7.83491 0.95402C7.93842 0.850357 7.99329 0.721995 7.99952 0.568935C8.00576 0.415874 7.95089 0.281276 7.83491 0.165139C7.72642 0.0567369 7.59498 0.00253487 7.44059 0.00253487C7.28621 0.00253487 7.15477 0.0567369 7.04628 0.165139L3.99873 3.20222ZM3.99873 7.693L0.951188 4.65592C0.847558 4.55238 0.719237 4.49749 0.566224 4.49126C0.41321 4.48502 0.278654 4.53991 0.162553 4.65592C0.0541844 4.76445 0 4.89593 0 5.05036C0 5.20479 0.0541844 5.33627 0.162553 5.4448L3.52529 8.80858C3.59537 8.87856 3.66926 8.92796 3.74695 8.95678C3.82464 8.98559 3.90857 9 3.99873 9C4.08889 9 4.17282 8.98559 4.25051 8.95678C4.3282 8.92796 4.40209 8.87856 4.47218 8.80858L7.83491 5.4448C7.93842 5.34114 7.99329 5.21278 7.99952 5.05971C8.00576 4.90665 7.95089 4.77206 7.83491 4.65592C7.72642 4.54752 7.59498 4.49332 7.44059 4.49332C7.28621 4.49332 7.15477 4.54752 7.04628 4.65592L3.99873 7.693Z" fill="#046DEC"/>
</svg>
