<svg width="40" height="40" viewBox="0 0 40 40" fill="none" xmlns="http://www.w3.org/2000/svg">
<circle cx="20" cy="20" r="20" fill="#F5F4F3"/>
<g clip-path="url(#clip0_1_6661)">
<mask id="mask0_1_6661" style="mask-type:alpha" maskUnits="userSpaceOnUse" x="8" y="8" width="24" height="24">
<rect x="8" y="8" width="24" height="24" fill="#D9D9D9"/>
</mask>
<g mask="url(#mask0_1_6661)">
<path d="M13.3078 28.5C12.8026 28.5 12.375 28.325 12.025 27.975C11.675 27.625 11.5 27.1974 11.5 26.6923V13.3077C11.5 12.8026 11.675 12.375 12.025 12.025C12.375 11.675 12.8026 11.5 13.3078 11.5H19.2598C19.4724 11.5 19.6506 11.5718 19.7943 11.7155C19.9378 11.859 20.0095 12.0372 20.0095 12.25C20.0095 12.4628 19.9378 12.641 19.7943 12.7845C19.6506 12.9282 19.4724 13 19.2598 13H13.3078C13.2308 13 13.1603 13.0321 13.0963 13.0962C13.0321 13.1602 13 13.2307 13 13.3077V26.6923C13 26.7692 13.0321 26.8398 13.0963 26.9038C13.1603 26.9679 13.2308 27 13.3078 27H19.2598C19.4724 27 19.6506 27.0718 19.7943 27.2155C19.9378 27.359 20.0095 27.5372 20.0095 27.75C20.0095 27.9628 19.9378 28.141 19.7943 28.2845C19.6506 28.4282 19.4724 28.5 19.2598 28.5H13.3078ZM25.6173 20.75H17.8463C17.6334 20.75 17.4552 20.6782 17.3115 20.5345C17.168 20.391 17.0963 20.2128 17.0963 20C17.0963 19.7872 17.168 19.609 17.3115 19.4655C17.4552 19.3218 17.6334 19.25 17.8463 19.25H25.6173L23.6943 17.327C23.5558 17.1885 23.4849 17.0196 23.4818 16.8203C23.4786 16.6209 23.5494 16.4437 23.6943 16.2885C23.8391 16.1333 24.0148 16.0532 24.2213 16.048C24.4276 16.043 24.6083 16.118 24.7635 16.273L27.8578 19.3672C28.0384 19.5481 28.1288 19.759 28.1288 20C28.1288 20.241 28.0384 20.4519 27.8578 20.6328L24.7635 23.727C24.6148 23.8757 24.4383 23.949 24.2338 23.947C24.0293 23.9452 23.8494 23.8667 23.6943 23.7115C23.5494 23.5563 23.4796 23.3782 23.4848 23.177C23.4898 22.9757 23.5648 22.8026 23.7098 22.6578L25.6173 20.75Z" fill="#333333"/>
</g>
</g>
<defs>
<clipPath id="clip0_1_6661">
<rect width="24" height="24" fill="white" transform="translate(8 8)"/>
</clipPath>
</defs>
</svg>
