<svg width="110" height="226" viewBox="0 0 110 226" fill="none" xmlns="http://www.w3.org/2000/svg">
<g clip-path="url(#clip0_62_315)">
<path d="M108.591 107.449L80.6816 56.5733C79.3602 54.1608 77.2982 52.4818 74.975 51.6502C73.3067 50.7557 71.2369 50.2222 68.9878 50.2222H40.3496C37.0831 50.2222 34.1908 51.3442 32.3705 53.0702C31.1582 53.9646 30.1058 55.1376 29.3145 56.5733L1.40909 107.449C-1.49098 112.737 0.228018 119.5 5.25637 122.556C10.2808 125.608 16.7085 123.796 19.6086 118.507L30.3747 98.8853V119.076C30.3318 119.418 30.3046 119.763 30.3046 120.116V195.258C30.3046 195.611 30.3318 195.957 30.3747 196.298V211.813C30.3747 219.521 35.0795 225.77 40.8836 225.77C46.6876 225.77 51.3885 219.521 51.3885 211.813V140.766H57.9566V211.813C57.9566 219.521 62.6614 225.77 68.4654 225.77C74.2695 225.77 78.9704 219.521 78.9704 211.813V199.083C78.9821 198.895 78.9977 198.703 78.9977 198.51V123.368C78.9977 123.176 78.9821 122.987 78.9704 122.795V97.6928L90.3914 118.511C93.2953 123.799 99.7191 125.612 104.744 122.56C109.768 119.508 111.491 112.745 108.591 107.453V107.449Z" fill="#F5F4F3"/>
<path d="M54.6724 46.3055C66.8223 46.3055 76.6724 35.9413 76.6724 23.1527C76.6724 10.3642 66.8223 0 54.6724 0C42.5225 0 32.6724 10.3642 32.6724 23.1527C32.6724 35.9413 42.5225 46.3055 54.6724 46.3055Z" fill="#F5F4F3"/>
</g>
<mask id="mask0_62_315" style="mask-type:alpha" maskUnits="userSpaceOnUse" x="0" y="0" width="110" height="226">
<g clip-path="url(#clip1_62_315)">
<path d="M108.591 107.449L80.6816 56.5733C79.3602 54.1608 77.2982 52.4818 74.975 51.6502C73.3067 50.7557 71.2369 50.2222 68.9878 50.2222H40.3496C37.0831 50.2222 34.1908 51.3442 32.3705 53.0702C31.1582 53.9646 30.1058 55.1376 29.3145 56.5733L1.40909 107.449C-1.49098 112.737 0.228018 119.5 5.25637 122.556C10.2808 125.608 16.7085 123.796 19.6086 118.507L30.3747 98.8853V119.076C30.3318 119.418 30.3046 119.763 30.3046 120.116V195.258C30.3046 195.611 30.3318 195.957 30.3747 196.298V211.813C30.3747 219.521 35.0795 225.77 40.8836 225.77C46.6876 225.77 51.3885 219.521 51.3885 211.813V140.766H57.9566V211.813C57.9566 219.521 62.6614 225.77 68.4654 225.77C74.2695 225.77 78.9704 219.521 78.9704 211.813V199.083C78.9821 198.895 78.9977 198.703 78.9977 198.51V123.368C78.9977 123.176 78.9821 122.987 78.9704 122.795V97.6928L90.3914 118.511C93.2953 123.799 99.7191 125.612 104.744 122.56C109.768 119.508 111.491 112.745 108.591 107.453V107.449Z" fill="#F5F4F3"/>
<path d="M54.6724 46.3055C66.8223 46.3055 76.6724 35.9413 76.6724 23.1527C76.6724 10.3642 66.8223 0 54.6724 0C42.5225 0 32.6724 10.3642 32.6724 23.1527C32.6724 35.9413 42.5225 46.3055 54.6724 46.3055Z" fill="#F5F4F3"/>
</g>
</mask>
<g mask="url(#mask0_62_315)">
<rect x="-5" y="82" width="121" height="144" fill="#4489DA"/>
</g>
<defs>
<clipPath id="clip0_62_315">
<rect width="110" height="226" fill="white"/>
</clipPath>
<clipPath id="clip1_62_315">
<rect width="110" height="226" fill="white"/>
</clipPath>
</defs>
</svg>
