<svg width="36" height="36" viewBox="0 0 36 36" fill="none" xmlns="http://www.w3.org/2000/svg">
<circle cx="18" cy="18" r="18" fill="#F0F7FF"/>
<path d="M23.916 11.293C24.2474 11.293 24.5667 11.3576 24.8701 11.4854C25.1614 11.6091 25.4249 11.7843 25.6484 12.0117C25.8719 12.2352 26.0481 12.4987 26.1719 12.79C26.2996 13.0933 26.3632 13.4129 26.3633 13.7441V23.5488C26.3633 23.8801 26.2996 24.1996 26.1719 24.5029C26.0481 24.7943 25.872 25.0577 25.6484 25.2812C25.4249 25.5048 25.1615 25.6809 24.8701 25.8047C24.5668 25.9324 24.2473 25.9961 23.916 25.9961L23.9199 26H12.4473C12.116 26 11.7965 25.9363 11.4932 25.8086C11.2018 25.6848 10.9384 25.5087 10.7148 25.2852C10.4913 25.0616 10.3152 24.7983 10.1914 24.5068C10.0637 24.2035 10 23.884 10 23.5527V13.7441C10 13.4129 10.0637 13.0933 10.1914 12.79C10.3152 12.4987 10.4913 12.2352 10.7148 12.0117C10.9383 11.7883 11.1979 11.613 11.4932 11.4893C11.7965 11.3615 12.1159 11.2979 12.4473 11.2979C12.7785 11.2979 13.0459 11.5652 13.0459 11.8965C13.0457 12.2276 12.7784 12.495 12.4473 12.4951C12.2796 12.4951 12.1156 12.5269 11.96 12.5947C11.8123 12.6586 11.6763 12.7466 11.5605 12.8623C11.4449 12.978 11.3528 13.1101 11.293 13.2617C11.2292 13.4172 11.1934 13.5807 11.1934 13.748V23.5527C11.1934 23.7204 11.2251 23.8844 11.293 24.04C11.3568 24.1917 11.4448 24.3237 11.5605 24.4395C11.6763 24.5552 11.8083 24.6432 11.96 24.707C12.1116 24.7709 12.2756 24.8027 12.4473 24.8027H23.916C24.0837 24.8027 24.2476 24.77 24.4033 24.7021C24.5509 24.6383 24.687 24.5512 24.8027 24.4355C24.9185 24.3198 25.0064 24.1878 25.0703 24.0361C25.1342 23.8804 25.1699 23.7165 25.1699 23.5488V13.7441C25.1699 13.5768 25.138 13.4133 25.0703 13.2578C25.0065 13.1102 24.9184 12.9741 24.8027 12.8584C24.687 12.7427 24.555 12.6547 24.4033 12.5908C24.2516 12.5269 24.0837 12.4912 23.916 12.4912C23.5849 12.4911 23.3176 12.2237 23.3174 11.8926C23.3174 11.5613 23.5847 11.293 23.916 11.293ZM18.0283 18.5371C18.4062 18.5371 18.7128 18.8438 18.7129 19.2217V21.3154C18.7129 21.6934 18.4063 22 18.0283 22C17.6504 22 17.3438 21.6934 17.3438 21.3154V19.2217C17.3438 18.8438 17.6504 18.5371 18.0283 18.5371ZM14.6846 17C15.0624 17.0001 15.3691 17.3067 15.3691 17.6846V21.0283C15.369 21.406 15.0623 21.7127 14.6846 21.7129C14.3067 21.7129 14.0001 21.4061 14 21.0283V17.6846C14 17.3066 14.3066 17 14.6846 17ZM21.377 17C21.7548 17.0001 22.0615 17.3067 22.0615 17.6846V21.0283C22.0614 21.4061 21.7547 21.7128 21.377 21.7129C20.9991 21.7129 20.6925 21.4061 20.6924 21.0283V17.6846C20.6924 17.3066 20.999 17 21.377 17ZM14.207 10C14.5383 10 14.8056 10.2674 14.8057 10.5986V12.6348C14.8056 12.9661 14.5384 13.2334 14.207 13.2334C13.8758 13.2333 13.6084 12.966 13.6084 12.6348V10.5986C13.6085 10.2674 13.8758 10.0001 14.207 10ZM22.1631 10C22.4943 10 22.7616 10.2674 22.7617 10.5986V12.6348C22.7617 12.9661 22.4944 13.2334 22.1631 13.2334C21.8318 13.2334 21.5645 12.9661 21.5645 12.6348V10.5986C21.5645 10.2674 21.8318 10 22.1631 10ZM20.3115 11.293C20.6428 11.2931 20.9102 11.5613 20.9102 11.8926C20.9099 12.2237 20.6426 12.4911 20.3115 12.4912H16.0557C15.7245 12.4911 15.4572 12.2237 15.457 11.8926C15.457 11.5613 15.7244 11.2931 16.0557 11.293H20.3115Z" fill="#2788FC"/>
</svg>
