<svg width="36" height="36" viewBox="0 0 36 36" fill="none" xmlns="http://www.w3.org/2000/svg">
<circle cx="18" cy="18" r="18" fill="#F0F7FF"/>
<path d="M18 23.4023C18.3861 23.4024 18.6981 23.7145 18.6982 24.1006V26.3018C18.6982 26.688 18.3862 26.9999 18 27C17.6138 27 17.3018 26.688 17.3018 26.3018V24.1006C17.3019 23.7145 17.6138 23.4023 18 23.4023ZM13.1973 21.8203C13.4718 21.5458 13.9147 21.5458 14.1846 21.8203C14.459 22.0949 14.4591 22.5377 14.1846 22.8076L12.625 24.3662C12.4901 24.5011 12.3086 24.5713 12.1318 24.5713C11.955 24.5713 11.7736 24.5011 11.6387 24.3662C11.3641 24.0917 11.3642 23.6498 11.6387 23.3799L13.1973 21.8203ZM21.8203 21.8203C22.0948 21.5459 22.5367 21.546 22.8066 21.8203L24.3662 23.3799C24.6403 23.6544 24.6405 24.0964 24.3662 24.3662C24.2313 24.5012 24.0489 24.5703 23.8721 24.5703C23.6954 24.5702 23.5137 24.5011 23.3789 24.3662L21.8203 22.8066C21.5459 22.5321 21.5458 22.0902 21.8203 21.8203ZM18 13.835C20.2987 13.8351 22.1689 15.7061 22.1689 18.0049C22.1688 20.3035 20.2986 22.1737 18 22.1738C15.7012 22.1738 13.8303 20.3036 13.8301 18.0049C13.8301 15.706 15.7011 13.835 18 13.835ZM18 15.2266C16.469 15.2266 15.2266 16.4736 15.2266 18C15.2266 19.5263 16.4737 20.7734 18 20.7734C19.5262 20.7733 20.7734 19.5262 20.7734 18C20.7734 16.4737 19.5262 15.2267 18 15.2266ZM11.8994 17.3018C12.2855 17.3019 12.5976 17.6138 12.5977 18C12.5977 18.3862 12.2855 18.6981 11.8994 18.6982H9.69824C9.312 18.6982 9 18.3862 9 18C9.00001 17.6138 9.312 17.3018 9.69824 17.3018H11.8994ZM26.3018 17.3018C26.6879 17.3019 27 17.6138 27 18C27 18.3862 26.6879 18.6981 26.3018 18.6982H24.1006C23.7143 18.6982 23.4023 18.3862 23.4023 18C23.4024 17.6138 23.7143 17.3018 24.1006 17.3018H26.3018ZM11.6338 11.6338C11.9083 11.3594 12.3502 11.3595 12.6201 11.6338L14.1797 13.1934C14.4538 13.4679 14.454 13.9099 14.1797 14.1797C14.0447 14.3146 13.8624 14.3838 13.6855 14.3838C13.5089 14.3837 13.3272 14.3145 13.1924 14.1797L11.6338 12.6201C11.3594 12.3455 11.3593 11.9036 11.6338 11.6338ZM23.3799 11.6338C23.6545 11.3596 24.0964 11.3593 24.3662 11.6338C24.6406 11.9082 24.6404 12.3502 24.3662 12.6201L22.8066 14.1797C22.6717 14.3144 22.4902 14.3838 22.3135 14.3838C22.1367 14.3837 21.9552 14.3146 21.8203 14.1797C21.5458 13.9052 21.546 13.4633 21.8203 13.1934L23.3799 11.6338ZM18 9C18.3862 9.00011 18.6982 9.31207 18.6982 9.69824V11.8994C18.6981 12.2855 18.3861 12.5975 18 12.5977C17.6138 12.5977 17.3019 12.2855 17.3018 11.8994V9.69824C17.3018 9.312 17.6138 9 18 9Z" fill="#2788FC"/>
</svg>
