<svg width="110" height="226" viewBox="0 0 110 226" fill="none" xmlns="http://www.w3.org/2000/svg">
<g clip-path="url(#clip0_62_327)">
<path d="M33.6836 23.1527C33.6836 35.9413 43.137 46.3055 54.803 46.3055C66.4691 46.3055 75.9225 35.9413 75.9225 23.1527C75.9225 10.3642 66.4691 0 54.803 0C43.137 0 33.6836 10.3642 33.6836 23.1527Z" fill="#F5F4F3"/>
<path d="M108.648 107.11L81.8523 56.2382C79.9351 52.5978 76.4152 50.605 72.8347 50.7109C71.5426 50.5501 70.0915 50.4559 68.5494 50.4559H41.057C39.4808 50.4559 37.9955 50.554 36.6808 50.7187C35.4835 50.7462 34.3051 51.0012 33.195 51.4758C32.5887 51.6916 32.1303 51.9348 31.8385 52.1977C30.3533 53.1352 29.065 54.4925 28.1481 56.2343L1.35285 107.11C-1.43201 112.398 0.219959 119.165 5.04705 122.217C9.87034 125.269 16.0425 123.456 18.8274 118.168L38.4729 80.8659L14.5231 157.511H32.7895V212.039C32.7895 219.747 37.3059 226 42.8756 226C48.4454 226 52.9618 219.751 52.9618 212.039V157.511H56.6484V212.039C56.6484 219.747 61.1648 226 66.7383 226C72.3118 226 76.8244 219.751 76.8244 212.039V157.511H95.0908L71.4706 80.7522L91.1768 118.168C93.9617 123.456 100.13 125.269 104.957 122.217C109.78 119.161 111.432 112.402 108.651 107.11H108.648Z" fill="#F5F4F3"/>
</g>
<mask id="mask0_62_327" style="mask-type:alpha" maskUnits="userSpaceOnUse" x="0" y="0" width="110" height="226">
<g clip-path="url(#clip1_62_327)">
<path d="M33.6836 23.1527C33.6836 35.9413 43.137 46.3055 54.803 46.3055C66.4691 46.3055 75.9225 35.9413 75.9225 23.1527C75.9225 10.3642 66.4691 0 54.803 0C43.137 0 33.6836 10.3642 33.6836 23.1527Z" fill="#F5F4F3"/>
<path d="M108.648 107.11L81.8523 56.2382C79.9351 52.5978 76.4152 50.605 72.8347 50.7109C71.5426 50.5501 70.0915 50.4559 68.5494 50.4559H41.057C39.4808 50.4559 37.9955 50.554 36.6808 50.7187C35.4835 50.7462 34.3051 51.0012 33.195 51.4758C32.5887 51.6916 32.1303 51.9348 31.8385 52.1977C30.3533 53.1352 29.065 54.4925 28.1481 56.2343L1.35285 107.11C-1.43201 112.398 0.219959 119.165 5.04705 122.217C9.87034 125.269 16.0425 123.456 18.8274 118.168L38.4729 80.8659L14.5231 157.511H32.7895V212.039C32.7895 219.747 37.3059 226 42.8756 226C48.4454 226 52.9618 219.751 52.9618 212.039V157.511H56.6484V212.039C56.6484 219.747 61.1648 226 66.7383 226C72.3118 226 76.8244 219.751 76.8244 212.039V157.511H95.0908L71.4706 80.7522L91.1768 118.168C93.9617 123.456 100.13 125.269 104.957 122.217C109.78 119.161 111.432 112.402 108.651 107.11H108.648Z" fill="#F5F4F3"/>
</g>
</mask>
<g mask="url(#mask0_62_327)">
<rect x="-6" y="114" width="126" height="112" fill="#F39B9B"/>
</g>
<defs>
<clipPath id="clip0_62_327">
<rect width="110" height="226" fill="white"/>
</clipPath>
<clipPath id="clip1_62_327">
<rect width="110" height="226" fill="white"/>
</clipPath>
</defs>
</svg>
